<?xml version="1.0" encoding="UTF-8" standalone="no"?>
<!-- Created with Inkscape (http://www.inkscape.org/) -->

<svg
   version="1.1"
   id="svg17672"
   width="740.54425"
   height="92.039635"
   viewBox="0 0 740.54425 92.039632"
   sodipodi:docname="gke-quickstart-object-browser-details.svg"
   inkscape:version="1.2.1 (9c6d41e410, 2022-07-14)"
   xmlns:inkscape="http://www.inkscape.org/namespaces/inkscape"
   xmlns:sodipodi="http://sodipodi.sourceforge.net/DTD/sodipodi-0.dtd"
   xmlns="http://www.w3.org/2000/svg"
   xmlns:svg="http://www.w3.org/2000/svg">
  <defs
     id="defs17676">
    <clipPath
       clipPathUnits="userSpaceOnUse"
       id="clipPath17692">
      <path
         d="M 45.98,50.613 H 58.203 L 56.148,47.012 C 55.855,46.496 55.305,46.18 54.707,46.18 H 43.906 c -0.597,0 -1.148,0.316 -1.441,0.832 l -3.176,5.554 6.691,11.356 z"
         clip-rule="evenodd"
         id="path17690" />
    </clipPath>
    <clipPath
       clipPathUnits="userSpaceOnUse"
       id="clipPath17700">
      <path
         d="M -0.0152386,-0.0100643 H 1.042207 V 1.004428 h -1.0574456 z"
         id="path17698" />
    </clipPath>
    <linearGradient
       x1="0.13361999"
       y1="0.59460002"
       x2="0.32205001"
       y2="0.47851899"
       gradientUnits="userSpaceOnUse"
       spreadMethod="pad"
       id="linearGradient17706">
      <stop
         style="stop-opacity:0.2;stop-color:#ffffff"
         offset="0"
         id="stop17702" />
      <stop
         style="stop-opacity:0;stop-color:#ffffff"
         offset="1"
         id="stop17704" />
    </linearGradient>
    <mask
       maskUnits="userSpaceOnUse"
       x="0"
       y="0"
       width="1"
       height="1"
       id="mask17708">
      <g
         id="g17714">
        <g
           clip-path="url(#clipPath17700)"
           id="g17712">
          <path
             d="M -0.0152386,-0.0100643 H 1.042207 V 1.004428 h -1.0574456 z"
             style="fill:url(#linearGradient17706);stroke:none"
             id="path17710" />
        </g>
      </g>
    </mask>
    <linearGradient
       x1="0.13361999"
       y1="0.59460002"
       x2="0.32205001"
       y2="0.47851899"
       gradientUnits="userSpaceOnUse"
       spreadMethod="pad"
       id="linearGradient17722">
      <stop
         style="stop-opacity:1;stop-color:#1a237e"
         offset="0"
         id="stop17718" />
      <stop
         style="stop-opacity:1;stop-color:#1a237e"
         offset="1"
         id="stop17720" />
    </linearGradient>
    <clipPath
       clipPathUnits="userSpaceOnUse"
       id="clipPath17732">
      <path
         d="m 39.289,52.566 3.297,3.68 -0.594,1.02 z"
         clip-rule="evenodd"
         id="path17730" />
    </clipPath>
    <clipPath
       clipPathUnits="userSpaceOnUse"
       id="clipPath17740">
      <path
         d="M -0.0873944,-0.120173 H 1.125515 v 1.276091 h -1.2129094 z"
         id="path17738" />
    </clipPath>
    <linearGradient
       x1="-0.15776999"
       y1="0.10154"
       x2="0.85395002"
       y2="0.81095999"
       gradientUnits="userSpaceOnUse"
       spreadMethod="pad"
       id="linearGradient17746">
      <stop
         style="stop-opacity:0.2;stop-color:#ffffff"
         offset="0"
         id="stop17742" />
      <stop
         style="stop-opacity:0.0399939;stop-color:#ffffff"
         offset="1"
         id="stop17744" />
    </linearGradient>
    <mask
       maskUnits="userSpaceOnUse"
       x="0"
       y="0"
       width="1"
       height="1"
       id="mask17748">
      <g
         id="g17754">
        <g
           clip-path="url(#clipPath17740)"
           id="g17752">
          <path
             d="M -0.0873944,-0.120173 H 1.125515 v 1.276091 h -1.2129094 z"
             style="fill:url(#linearGradient17746);stroke:none"
             id="path17750" />
        </g>
      </g>
    </mask>
    <linearGradient
       x1="-0.15776999"
       y1="0.10154"
       x2="0.85395002"
       y2="0.81095999"
       gradientUnits="userSpaceOnUse"
       spreadMethod="pad"
       id="linearGradient17762">
      <stop
         style="stop-opacity:1;stop-color:#1a237e"
         offset="0"
         id="stop17758" />
      <stop
         style="stop-opacity:1;stop-color:#1a237e"
         offset="1"
         id="stop17760" />
    </linearGradient>
    <clipPath
       clipPathUnits="userSpaceOnUse"
       id="clipPath17774">
      <path
         d="m 45.98,63.922 -6.691,-11.356 -2.223,3.883 c -0.296,0.516 -0.296,1.145 0,1.656 l 5.399,9.418 c 0.297,0.516 0.847,0.832 1.441,0.832 h 6.332 L 56.617,57.27 Z"
         clip-rule="evenodd"
         id="path17772" />
    </clipPath>
    <clipPath
       clipPathUnits="userSpaceOnUse"
       id="clipPath17782">
      <path
         d="M -0.0426852,-0.0357798 H 1.019399 V 1.040707 h -1.0620842 z"
         id="path17780" />
    </clipPath>
    <linearGradient
       x1="0.79562998"
       y1="0.74295002"
       x2="0.614618"
       y2="0.61031598"
       gradientUnits="userSpaceOnUse"
       spreadMethod="pad"
       id="linearGradient17788">
      <stop
         style="stop-opacity:0.14999619;stop-color:#ffffff"
         offset="0"
         id="stop17784" />
      <stop
         style="stop-opacity:0;stop-color:#ffffff"
         offset="1"
         id="stop17786" />
    </linearGradient>
    <mask
       maskUnits="userSpaceOnUse"
       x="0"
       y="0"
       width="1"
       height="1"
       id="mask17790">
      <g
         id="g17796">
        <g
           clip-path="url(#clipPath17782)"
           id="g17794">
          <path
             d="M -0.0426852,-0.0357798 H 1.019399 V 1.040707 h -1.0620842 z"
             style="fill:url(#linearGradient17788);stroke:none"
             id="path17792" />
        </g>
      </g>
    </mask>
    <linearGradient
       x1="0.79562998"
       y1="0.74295002"
       x2="0.614618"
       y2="0.61031598"
       gradientUnits="userSpaceOnUse"
       spreadMethod="pad"
       id="linearGradient17804">
      <stop
         style="stop-opacity:1;stop-color:#bf360c"
         offset="0"
         id="stop17800" />
      <stop
         style="stop-opacity:1;stop-color:#bf360c"
         offset="1"
         id="stop17802" />
    </linearGradient>
    <clipPath
       clipPathUnits="userSpaceOnUse"
       id="clipPath17816">
      <path
         d="M 58.203,50.613 H 45.98 l 10.637,6.657 -6.703,11.085 h 4.793 c 0.598,0 1.145,-0.316 1.441,-0.832 l 5.399,-9.418 c 0.297,-0.511 0.297,-1.14 0,-1.656 z"
         clip-rule="evenodd"
         id="path17814" />
    </clipPath>
    <clipPath
       clipPathUnits="userSpaceOnUse"
       id="clipPath17824">
      <path
         d="M -0.0620884,-0.0346215 H 1.014563 V 1.036232 h -1.0766514 z"
         id="path17822" />
    </clipPath>
    <linearGradient
       x1="0.49979001"
       y1="0.0097099999"
       x2="0.49979001"
       y2="0.24568599"
       gradientUnits="userSpaceOnUse"
       spreadMethod="pad"
       id="linearGradient17830">
      <stop
         style="stop-opacity:0.2;stop-color:#ffffff"
         offset="0"
         id="stop17826" />
      <stop
         style="stop-opacity:0;stop-color:#ffffff"
         offset="1"
         id="stop17828" />
    </linearGradient>
    <mask
       maskUnits="userSpaceOnUse"
       x="0"
       y="0"
       width="1"
       height="1"
       id="mask17832">
      <g
         id="g17838">
        <g
           clip-path="url(#clipPath17824)"
           id="g17836">
          <path
             d="M -0.0620884,-0.0346215 H 1.014563 V 1.036232 h -1.0766514 z"
             style="fill:url(#linearGradient17830);stroke:none"
             id="path17834" />
        </g>
      </g>
    </mask>
    <linearGradient
       x1="0.49979001"
       y1="0.0097099999"
       x2="0.49979001"
       y2="0.24568599"
       gradientUnits="userSpaceOnUse"
       spreadMethod="pad"
       id="linearGradient17846">
      <stop
         style="stop-opacity:1;stop-color:#a52714"
         offset="0"
         id="stop17842" />
      <stop
         style="stop-opacity:1;stop-color:#a52714"
         offset="1"
         id="stop17844" />
    </linearGradient>
    <clipPath
       clipPathUnits="userSpaceOnUse"
       id="clipPath17856">
      <path
         d="m 52.633,50.613 9.137,8.657 v 9.085 H 49.914 l 2.719,-4.433 z"
         clip-rule="evenodd"
         id="path17854" />
    </clipPath>
    <clipPath
       clipPathUnits="userSpaceOnUse"
       id="clipPath17864">
      <path
         d="M -0.0769715,-0.0346215 H 1.019351 V 1.036232 h -1.0963225 z"
         id="path17862" />
    </clipPath>
    <linearGradient
       x1="-0.081699997"
       y1="0.35526001"
       x2="0.62779999"
       y2="0.82922"
       gradientUnits="userSpaceOnUse"
       spreadMethod="pad"
       id="linearGradient17870">
      <stop
         style="stop-opacity:0.14999619;stop-color:#ffffff"
         offset="0"
         id="stop17866" />
      <stop
         style="stop-opacity:0;stop-color:#ffffff"
         offset="1"
         id="stop17868" />
    </linearGradient>
    <mask
       maskUnits="userSpaceOnUse"
       x="0"
       y="0"
       width="1"
       height="1"
       id="mask17872">
      <g
         id="g17878">
        <g
           clip-path="url(#clipPath17864)"
           id="g17876">
          <path
             d="M -0.0769715,-0.0346215 H 1.019351 V 1.036232 h -1.0963225 z"
             style="fill:url(#linearGradient17870);stroke:none"
             id="path17874" />
        </g>
      </g>
    </mask>
    <linearGradient
       x1="-0.081699997"
       y1="0.35526001"
       x2="0.62779999"
       y2="0.82922"
       gradientUnits="userSpaceOnUse"
       spreadMethod="pad"
       id="linearGradient17886">
      <stop
         style="stop-opacity:1;stop-color:#3e2723"
         offset="0"
         id="stop17882" />
      <stop
         style="stop-opacity:1;stop-color:#3e2723"
         offset="1"
         id="stop17884" />
    </linearGradient>
    <clipPath
       clipPathUnits="userSpaceOnUse"
       id="clipPath17896">
      <path
         d="m 45.98,63.922 3.934,4.433 2.719,-4.433 z"
         clip-rule="evenodd"
         id="path17894" />
    </clipPath>
    <clipPath
       clipPathUnits="userSpaceOnUse"
       id="clipPath17904">
      <path
         d="M -0.147343,-0.207729 H 1.055019 V 1.144927 H -0.147343 Z"
         id="path17902" />
    </clipPath>
    <linearGradient
       x1="0.50010002"
       y1="2.9999999e-05"
       x2="0.50010002"
       y2="0.99496001"
       gradientUnits="userSpaceOnUse"
       spreadMethod="pad"
       id="linearGradient17920">
      <stop
         style="stop-opacity:0.14999619;stop-color:#ffffff"
         offset="0"
         id="stop17906" />
      <stop
         style="stop-opacity:0.14399939;stop-color:#ffffff"
         offset="0.0404"
         id="stop17908" />
      <stop
         style="stop-opacity:0.11200122;stop-color:#ffffff"
         offset="0.2559"
         id="stop17910" />
      <stop
         style="stop-opacity:0.07998779;stop-color:#ffffff"
         offset="0.4652"
         id="stop17912" />
      <stop
         style="stop-opacity:0.05099565;stop-color:#ffffff"
         offset="0.6636"
         id="stop17914" />
      <stop
         style="stop-opacity:0.02299535;stop-color:#ffffff"
         offset="0.8467"
         id="stop17916" />
      <stop
         style="stop-opacity:0;stop-color:#ffffff"
         offset="1"
         id="stop17918" />
    </linearGradient>
    <mask
       maskUnits="userSpaceOnUse"
       x="0"
       y="0"
       width="1"
       height="1"
       id="mask17922">
      <g
         id="g17928">
        <g
           clip-path="url(#clipPath17904)"
           id="g17926">
          <path
             d="M -0.147343,-0.207729 H 1.055019 V 1.144927 H -0.147343 Z"
             style="fill:url(#linearGradient17920);stroke:none"
             id="path17924" />
        </g>
      </g>
    </mask>
    <linearGradient
       x1="0.50010002"
       y1="2.9999999e-05"
       x2="0.50010002"
       y2="0.99496001"
       gradientUnits="userSpaceOnUse"
       spreadMethod="pad"
       id="linearGradient17946">
      <stop
         style="stop-opacity:1;stop-color:#3e2723"
         offset="0"
         id="stop17932" />
      <stop
         style="stop-opacity:1;stop-color:#472821"
         offset="0.0404"
         id="stop17934" />
      <stop
         style="stop-opacity:1;stop-color:#722d1a"
         offset="0.2559"
         id="stop17936" />
      <stop
         style="stop-opacity:1;stop-color:#933114"
         offset="0.4652"
         id="stop17938" />
      <stop
         style="stop-opacity:1;stop-color:#ab340f"
         offset="0.6636"
         id="stop17940" />
      <stop
         style="stop-opacity:1;stop-color:#ba350d"
         offset="0.8467"
         id="stop17942" />
      <stop
         style="stop-opacity:1;stop-color:#bf360c"
         offset="1"
         id="stop17944" />
    </linearGradient>
    <clipPath
       clipPathUnits="userSpaceOnUse"
       id="clipPath17962">
      <path
         d="m 67,50.25 h 47 v 15 H 67 Z"
         id="path17960" />
    </clipPath>
    <clipPath
       clipPathUnits="userSpaceOnUse"
       id="clipPath17982">
      <path
         d="M 36,78.75 H 1155 V 576.562 H 36 Z"
         id="path17980" />
    </clipPath>
    <clipPath
       clipPathUnits="userSpaceOnUse"
       id="clipPath17992">
      <path
         d="m 36,115 h 1119 v 0.5 H 36 Z"
         id="path17990" />
    </clipPath>
    <clipPath
       clipPathUnits="userSpaceOnUse"
       id="clipPath18002">
      <path
         d="m 36,152.562 h 1119 v 0.5 H 36 Z"
         id="path18000" />
    </clipPath>
    <clipPath
       clipPathUnits="userSpaceOnUse"
       id="clipPath18026">
      <path
         d="m 54,123 h 4 v 4 h -4 z"
         id="path18024" />
    </clipPath>
    <clipPath
       clipPathUnits="userSpaceOnUse"
       id="clipPath18036">
      <path
         d="m 54,145.562 h 4 v 4 h -4 z"
         id="path18034" />
    </clipPath>
    <clipPath
       clipPathUnits="userSpaceOnUse"
       id="clipPath18046">
      <path
         d="M 57.75,123 H 58 v 0.5 h -0.25 z"
         id="path18044" />
    </clipPath>
    <clipPath
       clipPathUnits="userSpaceOnUse"
       id="clipPath18056">
      <path
         d="M 57.75,149.062 H 58 v 0.5 h -0.25 z"
         id="path18054" />
    </clipPath>
    <clipPath
       clipPathUnits="userSpaceOnUse"
       id="clipPath18066">
      <path
         d="m 54,127 h 0.5 v 18.562 H 54 Z"
         id="path18064" />
    </clipPath>
    <clipPath
       clipPathUnits="userSpaceOnUse"
       id="clipPath18076">
      <path
         d="m 57.75,149.062 h 33.375 v 0.5 H 57.75 Z"
         id="path18074" />
    </clipPath>
    <clipPath
       clipPathUnits="userSpaceOnUse"
       id="clipPath18086">
      <path
         d="m 199.625,123 h 4 v 4 h -4 z"
         id="path18084" />
    </clipPath>
    <clipPath
       clipPathUnits="userSpaceOnUse"
       id="clipPath18096">
      <path
         d="m 199.625,145.562 h 4 v 4 h -4 z"
         id="path18094" />
    </clipPath>
    <clipPath
       clipPathUnits="userSpaceOnUse"
       id="clipPath18106">
      <path
         d="m 91.125,123 h 108.5 v 0.5 h -108.5 z"
         id="path18104" />
    </clipPath>
    <clipPath
       clipPathUnits="userSpaceOnUse"
       id="clipPath18116">
      <path
         d="m 203.125,127 h 0.5 v 18.562 h -0.5 z"
         id="path18114" />
    </clipPath>
    <clipPath
       clipPathUnits="userSpaceOnUse"
       id="clipPath18126">
      <path
         d="m 91.125,149.062 h 108.5 v 0.5 h -108.5 z"
         id="path18124" />
    </clipPath>
    <clipPath
       clipPathUnits="userSpaceOnUse"
       id="clipPath18136">
      <path
         d="M 61.312,132 H 134 v 10 H 61.312 Z"
         id="path18134" />
    </clipPath>
    <clipPath
       clipPathUnits="userSpaceOnUse"
       id="clipPath18152">
      <path
         d="M 61.5,116 H 93 v 12 H 61.5 Z"
         id="path18150" />
    </clipPath>
    <clipPath
       clipPathUnits="userSpaceOnUse"
       id="clipPath18162">
      <path
         d="M 61.5,118 H 91 v 8 H 61.5 Z"
         id="path18160" />
    </clipPath>
    <clipPath
       clipPathUnits="userSpaceOnUse"
       id="clipPath18174">
      <path
         d="m 215.625,123 h 4 v 4 h -4 z"
         id="path18172" />
    </clipPath>
    <clipPath
       clipPathUnits="userSpaceOnUse"
       id="clipPath18184">
      <path
         d="m 215.625,145.562 h 4 v 4 h -4 z"
         id="path18182" />
    </clipPath>
    <clipPath
       clipPathUnits="userSpaceOnUse"
       id="clipPath18194">
      <path
         d="m 219.375,123 h 0.25 v 0.5 h -0.25 z"
         id="path18192" />
    </clipPath>
    <clipPath
       clipPathUnits="userSpaceOnUse"
       id="clipPath18204">
      <path
         d="m 219.375,149.062 h 0.25 v 0.5 h -0.25 z"
         id="path18202" />
    </clipPath>
    <clipPath
       clipPathUnits="userSpaceOnUse"
       id="clipPath18214">
      <path
         d="m 215.625,127 h 0.5 v 18.562 h -0.5 z"
         id="path18212" />
    </clipPath>
    <clipPath
       clipPathUnits="userSpaceOnUse"
       id="clipPath18224">
      <path
         d="m 219.375,149.062 h 48.562 v 0.5 h -48.562 z"
         id="path18222" />
    </clipPath>
    <clipPath
       clipPathUnits="userSpaceOnUse"
       id="clipPath18234">
      <path
         d="m 361.25,123 h 4 v 4 h -4 z"
         id="path18232" />
    </clipPath>
    <clipPath
       clipPathUnits="userSpaceOnUse"
       id="clipPath18244">
      <path
         d="m 361.25,145.562 h 4 v 4 h -4 z"
         id="path18242" />
    </clipPath>
    <clipPath
       clipPathUnits="userSpaceOnUse"
       id="clipPath18254">
      <path
         d="m 267.938,123 h 93.312 v 0.5 h -93.312 z"
         id="path18252" />
    </clipPath>
    <clipPath
       clipPathUnits="userSpaceOnUse"
       id="clipPath18264">
      <path
         d="m 364.75,127 h 0.5 v 18.562 h -0.5 z"
         id="path18262" />
    </clipPath>
    <clipPath
       clipPathUnits="userSpaceOnUse"
       id="clipPath18274">
      <path
         d="m 267.938,149.062 h 93.312 v 0.5 h -93.312 z"
         id="path18272" />
    </clipPath>
    <clipPath
       clipPathUnits="userSpaceOnUse"
       id="clipPath18330">
      <path
         d="m 54,228.062 h 1083 v 39 H 54 Z"
         id="path18328" />
    </clipPath>
    <clipPath
       clipPathUnits="userSpaceOnUse"
       id="clipPath18336">
      <path
         d="m 57,228.062 h 1077 c 1.656,0 3,1.344 3,3 v 33 c 0,1.657 -1.344,3 -3,3 H 57 c -1.656,0 -3,-1.343 -3,-3 v -33 c 0,-1.656 1.344,-3 3,-3 z"
         id="path18334" />
    </clipPath>
    <clipPath
       clipPathUnits="userSpaceOnUse"
       id="clipPath18386">
      <path
         d="m 36,546 h 559 v 0.5 H 36 Z"
         id="path18384" />
    </clipPath>
    <clipPath
       clipPathUnits="userSpaceOnUse"
       id="clipPath18412">
      <path
         d="m 567.461,331.25 h 27 v 0.5 h -27 z"
         id="path18410" />
    </clipPath>
    <clipPath
       clipPathUnits="userSpaceOnUse"
       id="clipPath18426">
      <path
         d="m 84,348 h 100.836 v 0.5 H 84 Z"
         id="path18424" />
    </clipPath>
    <clipPath
       clipPathUnits="userSpaceOnUse"
       id="clipPath18458">
      <path
         d="m 483.023,348 h 72.438 v 0.5 h -72.438 z"
         id="path18456" />
    </clipPath>
    <clipPath
       clipPathUnits="userSpaceOnUse"
       id="clipPath18474">
      <path
         d="m 567.461,352.75 h 27 v 0.5 h -27 z"
         id="path18472" />
    </clipPath>
    <clipPath
       clipPathUnits="userSpaceOnUse"
       id="clipPath18488">
      <path
         d="m 84,369.5 h 86.289 V 370 H 84 Z"
         id="path18486" />
    </clipPath>
    <clipPath
       clipPathUnits="userSpaceOnUse"
       id="clipPath18514">
      <path
         d="m 483.023,369.5 h 72.438 v 0.5 h -72.438 z"
         id="path18512" />
    </clipPath>
    <clipPath
       clipPathUnits="userSpaceOnUse"
       id="clipPath18530">
      <path
         d="m 567.461,374.25 h 27 v 0.5 h -27 z"
         id="path18528" />
    </clipPath>
    <clipPath
       clipPathUnits="userSpaceOnUse"
       id="clipPath18544">
      <path
         d="m 84,391 h 134.125 v 0.5 H 84 Z"
         id="path18542" />
    </clipPath>
    <clipPath
       clipPathUnits="userSpaceOnUse"
       id="clipPath18570">
      <path
         d="m 483.023,391 h 72.438 v 0.5 h -72.438 z"
         id="path18568" />
    </clipPath>
    <clipPath
       clipPathUnits="userSpaceOnUse"
       id="clipPath18586">
      <path
         d="m 567.461,395.75 h 27 v 0.5 h -27 z"
         id="path18584" />
    </clipPath>
    <clipPath
       clipPathUnits="userSpaceOnUse"
       id="clipPath18600">
      <path
         d="m 84,412.5 h 68.625 V 413 H 84 Z"
         id="path18598" />
    </clipPath>
    <clipPath
       clipPathUnits="userSpaceOnUse"
       id="clipPath18632">
      <path
         d="m 483.023,412.5 h 72.438 v 0.5 h -72.438 z"
         id="path18630" />
    </clipPath>
    <clipPath
       clipPathUnits="userSpaceOnUse"
       id="clipPath18648">
      <path
         d="m 567.461,417.25 h 27 v 0.5 h -27 z"
         id="path18646" />
    </clipPath>
    <clipPath
       clipPathUnits="userSpaceOnUse"
       id="clipPath18662">
      <path
         d="m 84,434 h 182.164 v 0.5 H 84 Z"
         id="path18660" />
    </clipPath>
    <clipPath
       clipPathUnits="userSpaceOnUse"
       id="clipPath18688">
      <path
         d="m 483.023,434 h 72.438 v 0.5 h -72.438 z"
         id="path18686" />
    </clipPath>
    <clipPath
       clipPathUnits="userSpaceOnUse"
       id="clipPath18704">
      <path
         d="m 567.461,438.75 h 27 v 0.5 h -27 z"
         id="path18702" />
    </clipPath>
    <clipPath
       clipPathUnits="userSpaceOnUse"
       id="clipPath18718">
      <path
         d="M 84,455.5 H 230.801 V 456 H 84 Z"
         id="path18716" />
    </clipPath>
    <clipPath
       clipPathUnits="userSpaceOnUse"
       id="clipPath18752">
      <path
         d="m 483.023,455.5 h 72.438 v 0.5 h -72.438 z"
         id="path18750" />
    </clipPath>
    <clipPath
       clipPathUnits="userSpaceOnUse"
       id="clipPath18768">
      <path
         d="m 567.461,460.25 h 27 v 0.5 h -27 z"
         id="path18766" />
    </clipPath>
    <clipPath
       clipPathUnits="userSpaceOnUse"
       id="clipPath18782">
      <path
         d="m 84,477 h 107 v 0.5 H 84 Z"
         id="path18780" />
    </clipPath>
    <clipPath
       clipPathUnits="userSpaceOnUse"
       id="clipPath18808">
      <path
         d="m 483.023,477 h 72.438 v 0.5 h -72.438 z"
         id="path18806" />
    </clipPath>
    <clipPath
       clipPathUnits="userSpaceOnUse"
       id="clipPath18824">
      <path
         d="m 567.461,481.75 h 27 v 0.5 h -27 z"
         id="path18822" />
    </clipPath>
    <clipPath
       clipPathUnits="userSpaceOnUse"
       id="clipPath18838">
      <path
         d="m 84,498.5 h 87.539 V 499 H 84 Z"
         id="path18836" />
    </clipPath>
    <clipPath
       clipPathUnits="userSpaceOnUse"
       id="clipPath18864">
      <path
         d="m 483.023,498.5 h 72.438 v 0.5 h -72.438 z"
         id="path18862" />
    </clipPath>
    <clipPath
       clipPathUnits="userSpaceOnUse"
       id="clipPath18880">
      <path
         d="m 567.461,503.25 h 27 v 0.5 h -27 z"
         id="path18878" />
    </clipPath>
    <clipPath
       clipPathUnits="userSpaceOnUse"
       id="clipPath18894">
      <path
         d="m 84,520 h 122.648 v 0.5 H 84 Z"
         id="path18892" />
    </clipPath>
    <clipPath
       clipPathUnits="userSpaceOnUse"
       id="clipPath18920">
      <path
         d="m 483.023,520 h 72.438 v 0.5 h -72.438 z"
         id="path18918" />
    </clipPath>
    <clipPath
       clipPathUnits="userSpaceOnUse"
       id="clipPath18936">
      <path
         d="m 567.461,524.75 h 27 v 0.5 h -27 z"
         id="path18934" />
    </clipPath>
    <clipPath
       clipPathUnits="userSpaceOnUse"
       id="clipPath18950">
      <path
         d="M 84,541.5 H 286.324 V 542 H 84 Z"
         id="path18948" />
    </clipPath>
    <clipPath
       clipPathUnits="userSpaceOnUse"
       id="clipPath18976">
      <path
         d="m 483.023,541.5 h 72.438 v 0.5 h -72.438 z"
         id="path18974" />
    </clipPath>
    <clipPath
       clipPathUnits="userSpaceOnUse"
       id="clipPath18992">
      <path
         d="m 567.461,546.25 h 27 v 0.25 h -27 z"
         id="path18990" />
    </clipPath>
    <clipPath
       clipPathUnits="userSpaceOnUse"
       id="clipPath19002">
      <path
         d="m 36,279 h 1119 v 0.5 H 36 Z"
         id="path19000" />
    </clipPath>
    <clipPath
       clipPathUnits="userSpaceOnUse"
       id="clipPath19012">
      <path
         d="M 36,309.5 H 1155 V 310 H 36 Z"
         id="path19010" />
    </clipPath>
    <clipPath
       clipPathUnits="userSpaceOnUse"
       id="clipPath19032">
      <path
         d="m 98.727,287 h 128.551 v 15 H 98.727 Z"
         id="path19030" />
    </clipPath>
    <clipPath
       clipPathUnits="userSpaceOnUse"
       id="clipPath19038">
      <path
         d="m 106.227,287 h 113.546 c 4.141,0 7.5,3.359 7.5,7.5 0,4.141 -3.359,7.5 -7.5,7.5 H 106.227 c -4.141,0 -7.5,-3.359 -7.5,-7.5 0,-4.141 3.359,-7.5 7.5,-7.5 z"
         id="path19036" />
    </clipPath>
    <clipPath
       clipPathUnits="userSpaceOnUse"
       id="clipPath19058">
      <path
         d="M 0,0 H 1119 V 424 H 0 Z"
         id="path19056" />
    </clipPath>
  </defs>
  <sodipodi:namedview
     id="namedview17674"
     pagecolor="#ffffff"
     bordercolor="#666666"
     borderopacity="1.0"
     inkscape:showpageshadow="2"
     inkscape:pageopacity="0.0"
     inkscape:pagecheckerboard="0"
     inkscape:deskcolor="#d1d1d1"
     showgrid="false"
     inkscape:zoom="0.84085505"
     inkscape:cx="318.12855"
     inkscape:cy="35.677969"
     inkscape:window-width="1665"
     inkscape:window-height="460"
     inkscape:window-x="173"
     inkscape:window-y="352"
     inkscape:window-maximized="0"
     inkscape:current-layer="g17678" />
  <g
     id="g17678"
     inkscape:groupmode="layer"
     inkscape:label="Configuration – Kubernetes Engine – cloud-dev – Google Cloud console1111"
     transform="matrix(1.3333333,0,0,1.3333333,-45.999999,-284.74018)">
    <g
       id="g17680"
       transform="matrix(0.49634334,0,0,0.07628395,16.63164,219.89002)">
      <path
         d="M 36,36 H 1155 V 806 H 36 Z"
         style="fill:#ffffff;fill-opacity:1;fill-rule:nonzero;stroke:none"
         id="path17682" />
      <g
         id="g17686">
        <g
           id="g17688"
           clip-path="url(#clipPath17692)">
          <g
             id="g17694"
             transform="matrix(18.913501,0,0,17.742857,39.288214,46.17857)">
            <g
               id="g17696" />
            <g
               id="g17716"
               mask="url(#mask17708)">
              <path
                 d="M 45.98,50.613 H 58.203 L 56.148,47.012 C 55.855,46.496 55.305,46.18 54.707,46.18 H 43.906 c -0.597,0 -1.148,0.316 -1.441,0.832 l -3.176,5.554 6.691,11.356 z"
                 style="fill:url(#linearGradient17722);fill-rule:evenodd;stroke:none"
                 id="path17724" />
            </g>
          </g>
        </g>
      </g>
      <g
         id="g17726">
        <g
           id="g17728"
           clip-path="url(#clipPath17732)">
          <g
             id="g17734"
             transform="matrix(3.297857,0,0,4.701858,39.288214,52.565039)">
            <g
               id="g17736" />
            <g
               id="g17756"
               mask="url(#mask17748)">
              <path
                 d="m 39.289,52.566 3.297,3.68 -0.594,1.02 z"
                 style="fill:url(#linearGradient17762);fill-rule:evenodd;stroke:none"
                 id="path17764" />
            </g>
          </g>
        </g>
      </g>
      <g
         id="g17768">
        <g
           id="g17770"
           clip-path="url(#clipPath17774)">
          <g
             id="g17776"
             transform="matrix(19.772439,0,0,15.792106,36.843991,52.565038)">
            <g
               id="g17778" />
            <g
               id="g17798"
               mask="url(#mask17790)">
              <path
                 d="m 45.98,63.922 -6.691,-11.356 -2.223,3.883 c -0.296,0.516 -0.296,1.145 0,1.656 l 5.399,9.418 c 0.297,0.516 0.847,0.832 1.441,0.832 h 6.332 L 56.617,57.27 Z"
                 style="fill:url(#linearGradient17804);fill-rule:evenodd;stroke:none"
                 id="path17806" />
            </g>
          </g>
        </g>
      </g>
      <g
         id="g17810">
        <g
           id="g17812"
           clip-path="url(#clipPath17816)">
          <g
             id="g17818"
             transform="matrix(15.789697,0,0,17.742857,45.980358,50.614284)">
            <g
               id="g17820" />
            <g
               id="g17840"
               mask="url(#mask17832)">
              <path
                 d="M 58.203,50.613 H 45.98 l 10.637,6.657 -6.703,11.085 h 4.793 c 0.598,0 1.145,-0.316 1.441,-0.832 l 5.399,-9.418 c 0.297,-0.511 0.297,-1.14 0,-1.656 z"
                 style="fill:url(#linearGradient17846);fill-rule:evenodd;stroke:none"
                 id="path17848" />
            </g>
          </g>
        </g>
      </g>
      <g
         id="g17850">
        <g
           id="g17852"
           clip-path="url(#clipPath17856)">
          <g
             id="g17858"
             transform="matrix(11.857822,0,0,17.742857,49.912714,50.614284)">
            <g
               id="g17860" />
            <g
               id="g17880"
               mask="url(#mask17872)">
              <path
                 d="m 52.633,50.613 9.137,8.657 v 9.085 H 49.914 l 2.719,-4.433 z"
                 style="fill:url(#linearGradient17886);fill-rule:evenodd;stroke:none"
                 id="path17888" />
            </g>
          </g>
        </g>
      </g>
      <g
         id="g17890">
        <g
           id="g17892"
           clip-path="url(#clipPath17896)">
          <g
             id="g17898"
             transform="matrix(6.653572,0,0,4.435715,45.980358,63.921429)">
            <g
               id="g17900" />
            <g
               id="g17930"
               mask="url(#mask17922)">
              <path
                 d="m 45.98,63.922 3.934,4.433 2.719,-4.433 z"
                 style="fill:url(#linearGradient17946);fill-rule:evenodd;stroke:none"
                 id="path17948" />
            </g>
          </g>
        </g>
      </g>
    </g>
    <g
       id="g17966"
       transform="matrix(0.49336157,0,0,1,18.238984,0)">
      <path
         d="m 36,215.49501 h 1119 v 67.08986 H 36 Z"
         style="fill:#ffffff;fill-opacity:1;fill-rule:nonzero;stroke:none;stroke-width:0.303729"
         id="path17968" />
      <path
         d="m 36,219.16934 h 1119 v 58.57732 H 36 Z"
         style="fill:#ffffff;fill-opacity:1;fill-rule:nonzero;stroke:none;stroke-width:0.283807"
         id="path17970" />
      <path
         d="m 36,225.52492 h 1119 v 41.85479 H 36 Z"
         style="fill:#ffffff;fill-opacity:1;fill-rule:nonzero;stroke:none;stroke-width:0.2399"
         id="path17972" />
      <path
         d="m 36,213.55514 h 1119 v 66.12894 H 36 Z"
         style="fill:#ffffff;fill-opacity:1;fill-rule:nonzero;stroke:none;stroke-width:0.301546"
         id="path17974" />
    </g>
    <g
       id="g17976"
       transform="matrix(0.49138542,0,0,1,18.310125,0)">
      <g
         id="g17978"
         clip-path="url(#clipPath17982)"
         transform="matrix(1,0,0,0.12675606,0,205.23756)">
        <path
           d="M 36,78.75 H 1155 V 576.562 H 36 Z"
           style="fill:#ffffff;fill-opacity:1;fill-rule:nonzero;stroke:none"
           id="path17984" />
      </g>
    </g>
    <g
       id="g18324"
       transform="matrix(0.47839041,0,0,1,28.166918,0)">
      <g
         id="g18326"
         clip-path="url(#clipPath18330)">
        <g
           id="g18332"
           clip-path="url(#clipPath18336)">
          <path
             d="m 54,228.062 h 1083 v 39 H 54 Z"
             style="fill:#000000;fill-opacity:0.0509804;fill-rule:nonzero;stroke:none"
             id="path18338" />
        </g>
      </g>
    </g>
    <g
       id="g18340">
      <text
         xml:space="preserve"
         transform="translate(104.25,251.0625)"
         style="font-variant:normal;font-size:9.75px;font-family:CairoFont-0;-inkscape-font-specification:CairoFont-0-0;writing-mode:lr-tb;fill:#000000;fill-opacity:1;fill-rule:nonzero;stroke:none"
         id="text18346"><tspan
           sodipodi:role="line"
           id="tspan19594"
           x="0"
           y="0">0/3 nodes are available: 3 node(s) didn't match Pod's node affinity/selector.</tspan></text>
    </g>
    <g
       id="g19042"
       transform="translate(-565.5)">
      <text
         xml:space="preserve"
         style="font-style:normal;font-variant:normal;font-weight:normal;font-stretch:normal;font-size:9.75px;font-family:Arial;-inkscape-font-specification:'Arial, Normal';font-variant-ligatures:normal;font-variant-caps:normal;font-variant-numeric:normal;font-variant-east-asian:normal;writing-mode:lr-tb;fill:#3367d6;fill-opacity:1;fill-rule:nonzero;stroke:none"
         id="text19112-6"
         x="1045.8489"
         y="250.29922"><tspan
           sodipodi:role="line"
           id="tspan21890"
           x="1045.8489"
           y="250.29922">SHOW DETAILS</tspan></text>
    </g>
    <path
       d="m 79.747514,242.48668 c -2.898,0 -5.25,2.352 -5.25,5.25 0,2.898 2.352,5.25 5.25,5.25 2.898,0 5.25,-2.352 5.25,-5.25 0,-2.898 -2.352,-5.25 -5.25,-5.25 z m -0.75,6 v -3.75 h 1.5 v 3.75 z m 0,2.25 v -1.5 h 1.5 v 1.5 z"
       style="fill:#d50000;fill-opacity:1;fill-rule:nonzero;stroke:none"
       id="path21196" />
  </g>
</svg>
