<?xml version="1.0" encoding="UTF-8" standalone="no"?>
<!-- Created with Inkscape (http://www.inkscape.org/) -->

<svg
   version="1.1"
   id="svg1"
   width="233.99998"
   height="44"
   viewBox="0 0 233.99998 44"
   sodipodi:docname="gke-activate-cloud-shell.svg"
   xml:space="preserve"
   inkscape:version="1.3.2 (091e20ef0f, 2023-11-25, custom)"
   xmlns:inkscape="http://www.inkscape.org/namespaces/inkscape"
   xmlns:sodipodi="http://sodipodi.sourceforge.net/DTD/sodipodi-0.dtd"
   xmlns="http://www.w3.org/2000/svg"
   xmlns:svg="http://www.w3.org/2000/svg"><defs
     id="defs1"><clipPath
       clipPathUnits="userSpaceOnUse"
       id="clipPath3"><path
         d="M 36,71.5 H 806 V 72 H 36 Z"
         id="path3" /></clipPath><clipPath
       clipPathUnits="userSpaceOnUse"
       id="clipPath13"><path
         d="M 324.312,40.25 H 554.75 c 1.656,0 3,1.344 3,3 v 21 c 0,1.656 -1.344,3 -3,3 H 324.312 c -1.656,0 -3,-1.344 -3,-3 v -21 c 0,-1.656 1.344,-3 3,-3 z"
         id="path13" /></clipPath><clipPath
       clipPathUnits="userSpaceOnUse"
       id="clipPath18"><path
         d="m 487.551,41 h 66.699 c 1.656,0 3,1.344 3,3 v 19.5 c 0,1.656 -1.344,3 -3,3 h -66.699 z"
         id="path18" /></clipPath><clipPath
       clipPathUnits="userSpaceOnUse"
       id="clipPath21"><path
         d="m 487.551,41 h 0.5 v 25.5 h -0.5 z"
         id="path21" /></clipPath><clipPath
       clipPathUnits="userSpaceOnUse"
       id="clipPath23"><path
         d="m 573.5,44.727 h 18 v 18 h -18 z"
         id="path23" /></clipPath><clipPath
       clipPathUnits="userSpaceOnUse"
       id="clipPath25"><path
         d="m 16.336,-6.5 c 12.883,0 23.34,10.457 23.34,23.336 0,12.883 -10.457,23.34 -23.34,23.34 C 3.457,40.176 -7,29.719 -7,16.836 -7,3.957 3.457,-6.5 16.336,-6.5 Z"
         transform="translate(-2.5000001e-6)"
         id="path25" /></clipPath><clipPath
       clipPathUnits="userSpaceOnUse"
       id="clipPath26"><path
         d="m 0,0.5 h 33 v 33 H 0 Z"
         transform="matrix(1.3333333,0,0,1.3333333,842.66667,49.333333)"
         id="path26" /></clipPath><clipPath
       clipPathUnits="userSpaceOnUse"
       id="clipPath29"><path
         d="m 648.5,37.5 c 9.105,0 16.5,7.395 16.5,16.5 0,9.105 -7.395,16.5 -16.5,16.5 -9.105,0 -16.5,-7.395 -16.5,-16.5 0,-9.105 7.395,-16.5 16.5,-16.5 z"
         transform="scale(1.3333333)"
         id="path29" /></clipPath><clipPath
       clipPathUnits="userSpaceOnUse"
       id="clipPath34"><path
         d="m 767,41.75 h 24 v 24 h -24 z"
         transform="matrix(0.04166667,0,0,0.04,-31.958334,-1.64)"
         id="path34" /></clipPath><clipPath
       clipPathUnits="userSpaceOnUse"
       id="clipPath35"><path
         d="m 767,41.75 h 24 v 24 h -24 z"
         transform="scale(1.3333333)"
         id="path35" /></clipPath></defs><sodipodi:namedview
     id="namedview1"
     pagecolor="#ffffff"
     bordercolor="#666666"
     borderopacity="1.0"
     inkscape:showpageshadow="2"
     inkscape:pageopacity="0.0"
     inkscape:pagecheckerboard="0"
     inkscape:deskcolor="#d1d1d1"
     inkscape:zoom="1.1879194"
     inkscape:cx="-71.974578"
     inkscape:cy="-186.03955"
     inkscape:window-width="1920"
     inkscape:window-height="1014"
     inkscape:window-x="0"
     inkscape:window-y="29"
     inkscape:window-maximized="1"
     inkscape:current-layer="g1"><inkscape:page
       x="0"
       y="0"
       inkscape:label="1"
       id="page1"
       width="233.99998"
       height="44"
       margin="0"
       bleed="0" /></sodipodi:namedview><g
     id="g1"
     inkscape:groupmode="layer"
     inkscape:label="1"
     transform="translate(-764.66665,-50)"><path
       id="path22"
       d="m 582.5,62.5 c 0,-1.246 -0.238,-2.414 -0.719,-3.512 -0.465,-1.093 -1.105,-2.047 -1.914,-2.855 -0.808,-0.809 -1.762,-1.449 -2.855,-1.914 -1.098,-0.481 -2.266,-0.719 -3.512,-0.719 1.246,0 2.414,-0.234 3.512,-0.699 1.093,-0.477 2.047,-1.125 2.855,-1.934 0.809,-0.808 1.449,-1.762 1.914,-2.855 0.481,-1.098 0.719,-2.266 0.719,-3.512 0,1.246 0.234,2.414 0.699,3.512 0.477,1.093 1.125,2.047 1.934,2.855 0.808,0.809 1.762,1.457 2.855,1.934 1.098,0.465 2.266,0.699 3.512,0.699 -1.246,0 -2.414,0.238 -3.512,0.719 -1.093,0.465 -2.047,1.105 -2.855,1.914 -0.809,0.808 -1.457,1.762 -1.934,2.855 -0.465,1.098 -0.699,2.266 -0.699,3.512 z"
       style="fill:#000000;fill-opacity:0.658824;fill-rule:nonzero;stroke:none"
       transform="scale(1.3333333)"
       clip-path="url(#clipPath23)" /><path
       id="path24"
       d="m 623,48.25 h -3.887 c 0.086,-0.234 0.137,-0.488 0.137,-0.75 0,-1.238 -1.012,-2.25 -2.25,-2.25 -0.578,0 -1.102,0.227 -1.5,0.586 -0.398,-0.359 -0.922,-0.586 -1.5,-0.586 -1.238,0 -2.25,1.012 -2.25,2.25 0,0.262 0.051,0.516 0.137,0.75 H 608 v 4.5 h 1.5 V 61 h 12 v -8.25 h 1.5 z m -6,-1.5 c 0.414,0 0.75,0.336 0.75,0.75 0,0.414 -0.336,0.75 -0.75,0.75 -0.414,0 -0.75,-0.336 -0.75,-0.75 0,-0.414 0.336,-0.75 0.75,-0.75 z m -3.75,0.75 c 0,-0.414 0.336,-0.75 0.75,-0.75 0.414,0 0.75,0.336 0.75,0.75 0,0.414 -0.336,0.75 -0.75,0.75 -0.414,0 -0.75,-0.336 -0.75,-0.75 z m -3.75,2.25 h 5.25 v 1.5 h -5.25 z m 1.5,3 h 3.75 V 59.5 H 611 Z m 9,6.75 h -3.75 V 52.75 H 620 Z m 1.5,-8.25 h -5.25 v -1.5 h 5.25 z"
       style="fill:#000000;fill-opacity:0.658824;fill-rule:nonzero;stroke:none"
       transform="scale(1.3333333)" /><g
       id="g29"
       clip-path="url(#clipPath29)"
       style="fill:#e0e1e1;fill-opacity:1"><g
         opacity="0.1"
         id="g26"
         style="fill:#e0e1e1;fill-opacity:1" /><g
         id="g28"
         style="fill:#e0e1e1;fill-opacity:1"><g
           clip-path="url(#clipPath26)"
           id="g27"
           style="fill:#e0e1e1;fill-opacity:1"><path
             d="M 0,0 H 33 V 34 H 0 Z"
             style="fill:#e0e1e1;fill-opacity:1;fill-rule:nonzero;stroke:none"
             transform="matrix(1.3333333,0,0,1.3333333,842.66667,49.333333)"
             clip-path="url(#clipPath25)"
             id="path27" /></g></g></g><path
       id="path30"
       d="m 654,47 h -10.5 c -0.824,0 -1.5,0.676 -1.5,1.5 V 59 c 0,0.824 0.676,1.5 1.5,1.5 H 654 c 0.824,0 1.5,-0.676 1.5,-1.5 V 48.5 c 0,-0.824 -0.676,-1.5 -1.5,-1.5 z m 0,12 H 643.5 V 48.5 H 654 Z M 649.5,55.25 647.25,53 H 645 l 2.25,2.25 -2.25,2.25 h 2.25 z m 3,1.5 V 56 h -3 v 1.5 h 3 z"
       style="fill:#000000;fill-opacity:0.658824;fill-rule:nonzero;stroke:none"
       transform="scale(1.3333333)" /><path
       id="path31"
       d="m 686,57.25 v -4.5 c 0,-2.301 -1.223,-4.23 -3.375,-4.738 V 47.5 c 0,-0.621 -0.504,-1.125 -1.125,-1.125 -0.621,0 -1.125,0.504 -1.125,1.125 v 0.512 C 678.23,48.52 677,50.441 677,52.75 v 4.5 h -1.5 v 1.5 h 12 v -1.5 z m -1.5,0 h -6 v -4.5 c 0,-1.859 1.133,-3.375 3,-3.375 1.867,0 3,1.516 3,3.375 z m -3,3.75 c 0.824,0 1.5,-0.676 1.5,-1.5 h -3 c 0,0.824 0.676,1.5 1.5,1.5 z"
       style="fill:#000000;fill-opacity:0.658824;fill-rule:nonzero;stroke:none"
       transform="scale(1.3333333)" /><path
       id="path32"
       d="m 713.75,58 h 1.5 v -1.5 h -1.5 z m 0.75,-12 c -4.141,0 -7.5,3.359 -7.5,7.5 0,4.141 3.359,7.5 7.5,7.5 4.141,0 7.5,-3.359 7.5,-7.5 0,-4.141 -3.359,-7.5 -7.5,-7.5 z m 0,13.5 c -3.309,0 -6,-2.691 -6,-6 0,-3.309 2.691,-6 6,-6 3.309,0 6,2.691 6,6 0,3.309 -2.691,6 -6,6 z m 0,-10.5 c -1.656,0 -3,1.344 -3,3 h 1.5 c 0,-0.824 0.676,-1.5 1.5,-1.5 0.824,0 1.5,0.676 1.5,1.5 0,1.5 -2.25,1.312 -2.25,3.75 h 1.5 c 0,-1.688 2.25,-1.875 2.25,-3.75 0,-1.656 -1.344,-3 -3,-3 z"
       style="fill:#000000;fill-opacity:0.658824;fill-rule:nonzero;stroke:none"
       transform="scale(1.3333333)" /><path
       id="path33"
       d="m 747.5,50.5 c 0.824,0 1.5,-0.676 1.5,-1.5 0,-0.824 -0.676,-1.5 -1.5,-1.5 -0.824,0 -1.5,0.676 -1.5,1.5 0,0.824 0.676,1.5 1.5,1.5 z m 0,1.5 c -0.824,0 -1.5,0.676 -1.5,1.5 0,0.824 0.676,1.5 1.5,1.5 0.824,0 1.5,-0.676 1.5,-1.5 0,-0.824 -0.676,-1.5 -1.5,-1.5 z m 0,4.5 c -0.824,0 -1.5,0.676 -1.5,1.5 0,0.824 0.676,1.5 1.5,1.5 0.824,0 1.5,-0.676 1.5,-1.5 0,-0.824 -0.676,-1.5 -1.5,-1.5 z"
       style="fill:#000000;fill-opacity:0.658824;fill-rule:evenodd;stroke:none"
       transform="scale(1.3333333)" /></g></svg>
