<svg width="100" height="100" viewBox="0 0 100 100" fill="none" xmlns="http://www.w3.org/2000/svg">
<path opacity="0.6" d="M28.5801 52.0951H34.7731L37.8698 46.7319H31.6769L28.5801 52.0951Z" fill="white"/>
<g opacity="0.4">
<path d="M31.6783 46.7319H19.3863L16.2578 52.0951H28.5815L31.6783 46.7319Z" fill="white"/>
<path d="M37.8713 46.7319L34.7745 52.0951H51.1181L54.2466 46.7319H37.8713Z" fill="white"/>
</g>
<path opacity="0.6" d="M22.3867 62.8211H28.5797L31.6765 57.458H25.4835L22.3867 62.8211Z" fill="white"/>
<g opacity="0.4">
<path d="M25.4837 57.458H13.1285L10 62.8211H22.387L25.4837 57.458Z" fill="white"/>
<path d="M31.6767 57.458L28.5799 62.8211H57.3743L60.5028 57.458H31.6767Z" fill="white"/>
</g>
<path opacity="0.6" d="M80.7106 68.1843H74.5176L77.6144 73.5475H83.8074L80.7106 68.1843Z" fill="white"/>
<g opacity="0.4">
<path d="M74.5175 68.1843H60.5035L57.375 73.5475H77.6143L74.5175 68.1843Z" fill="white"/>
<path d="M80.7105 68.1843L83.8073 73.5475H93.1126L96.2411 68.1843H80.7105Z" fill="white"/>
</g>
<path d="M80.7097 68.1844L50 15L31.6774 46.7318H37.8704L50 25.7253L80.7102 78.9106H19.2898L34.7736 52.095H28.5807L25.4839 57.4581H31.6767L28.5799 62.8212H22.3871L10 84.2738H90L83.8065 73.5475H77.6136L74.5168 68.1844H80.7097Z" fill="white"/>
<path d="M75.1524 58.5596C80.4392 55.1012 83.9321 49.128 83.9321 42.3389C83.9321 31.6417 75.2603 22.9699 64.5631 22.9699C61.4122 22.9699 58.437 23.7223 55.8074 25.0572L58.4953 29.7121C60.3311 28.8283 62.3892 28.333 64.5631 28.333C72.2983 28.333 78.569 34.6037 78.569 42.3389C78.569 47.1428 76.1504 51.3818 72.4646 53.9048L75.1524 58.5596Z" fill="white"/>
</svg>
